<mxfile host="app.diagrams.net" modified="2023-05-27T17:10:30.929Z" agent="Mozilla/5.0 (Windows NT 10.0; Win64; x64) AppleWebKit/537.36 (KHTML, like Gecko) Chrome/112.0.5615.138 Safari/537.36 CCleaner/112.0.21002.140" version="21.3.4" etag="Gyxtyxr1NMyzYLbOZq0-" type="github">
  <diagram name="Page-1" id="dbq9S8WuMA135YUiAUjt">
    <mxGraphModel>
      <root>
        <mxCell id="0" />
        <mxCell id="1" parent="0" />
      </root>
    </mxGraphModel>
  </diagram>
</mxfile>
